<?xml version="1.0" encoding="UTF-8" standalone="no"?>
<!-- Created with Inkscape (http://www.inkscape.org/) -->

<svg
   version="1.1"
   id="svg1"
   width="1569"
   height="819"
   viewBox="0 0 1569 819"
   sodipodi:docname="Map.svg"
   inkscape:version="1.3.2 (091e20e, 2023-11-25, custom)"
   xmlns:inkscape="http://www.inkscape.org/namespaces/inkscape"
   xmlns:sodipodi="http://sodipodi.sourceforge.net/DTD/sodipodi-0.dtd"
   xmlns:xlink="http://www.w3.org/1999/xlink"
   xmlns="http://www.w3.org/2000/svg"
   xmlns:svg="http://www.w3.org/2000/svg">
  <defs
     id="defs1" />
  <sodipodi:namedview
     id="namedview1"
     pagecolor="#ffffff"
     bordercolor="#999999"
     borderopacity="1"
     inkscape:showpageshadow="2"
     inkscape:pageopacity="0"
     inkscape:pagecheckerboard="0"
     inkscape:deskcolor="#d1d1d1"
     inkscape:zoom="0.86297004"
     inkscape:cx="784.5"
     inkscape:cy="409.63183"
     inkscape:window-width="1920"
     inkscape:window-height="991"
     inkscape:window-x="1591"
     inkscape:window-y="1000"
     inkscape:window-maximized="1"
     inkscape:current-layer="g1" />
  <g
     inkscape:groupmode="layer"
     inkscape:label="Image"
     id="g1">
    <image
       width="1569"
       height="819"
       preserveAspectRatio="none"
       xlink:href="Map.png"
       id="image1" />
    <path
       style="fill:#000000"
       d="m 0,19.699409 h 35.922452 l 1.158789,462.356721 139.054649,-1.15879 1.15879,34.76366 -139.05465,1.15879 -3.476367,263.04505 H 611.84047 l -1.15879,-144.84859 h 32.44609 l 3.47637,150.64254 276.95051,-2.31758 -2.31757,-130.94313 -154.11891,-1.15879 1.15879,-154.11891 37.08124,2.31758 1.15879,118.19646 267.68021,-1.15879 -1.1588,-99.65584 -156.43648,1.15879 1.15879,-156.43648 -148.32496,-2.31758 -3.47637,-152.96012 -140.21344,-5.79394 1.15879,-33.60488 h 176.13589 l 1.15879,157.59528 h 148.32496 l 3.47637,152.96011 269.99776,2.31758 -3.4763,-274.63294 -108.9262,-3.47636 -4.6351,137.89586 -38.2401,1.15879 3.4764,-173.81832 343.0015,1.15879 -1.1588,35.92245 -155.2777,1.15879 1.1588,312.87297 h -154.1189 l 2.3175,135.57829 -154.11886,2.31758 5.79394,128.62555 455.40402,-3.47637 1.1588,37.08124 151.8013,2.31758 -2.3176,-20.8582 -33.6049,-2.31757 -2.3175,-126.30798 -288.5384,-1.15879 -1.1588,-35.92245 294.3323,-1.15879 -5.7939,-275.79173 -113.5613,1.15879 v 141.37223 l -38.2401,1.15879 2.3176,-180.77105 h 148.325 L 1530.76,35.922452 H 954.84195 L 953.68316,185.4062 918.9195,186.56499 914.28434,35.922452 499.43796,37.081241 498.27917,320.98449 h 148.32497 l -2.31758,186.56499 H 495.9616 l -1.15879,144.8486 H 176.13589 l 2.31758,-37.08124 279.2681,-1.15879 2.31757,-146.00739 h 148.32497 l 1.15879,-112.40251 -269.99779,3.47637 -3.47637,140.21344 h -39.39881 l 3.47636,-141.37223 H 157.59527 l 3.47637,-191.20015 169.18316,-1.15879 v 38.24003 l -136.73707,-1.15878 1.15878,120.51403 267.68021,-2.31758 L 461.19793,37.081241 151.80133,38.24003 150.64254,0 H -1.1587888 Z"
       id="path1" />
  </g>
</svg>
